<svg xmlns="http://www.w3.org/2000/svg" viewBox="0 0 16 16">
  <defs>
    <style>
      image, .sprite-part { display: none; }
      image:target, .sprite-part:target { display: inline; }
    </style>
    <g id="SingleChevron">
      <g stroke="#000000" stroke-width="1.2" fill="none" fill-rule="evenodd" stroke-linecap="square" stroke-linejoin="round">
        <polyline points="6.5 11 9.5 8 6.5 5" />
      </g>
    </g>
    <g id="SingleChevronWhite">
      <g stroke="#ffffff" stroke-width="1.2" fill="none" fill-rule="evenodd" stroke-linecap="square" stroke-linejoin="round">
        <polyline points="6.5 11 9.5 8 6.5 5" />
      </g>
    </g>
    <g id="TreeViewOpen">
      <g transform="translate(16, 0) rotate(90)">
        <use href="#SingleChevron" />
      </g>
    </g>
    <g id="TreeViewClosed">
      <use href="#SingleChevron" />
    </g>
    <g id="Alert">
      <g fill="none" fill-rule="evenodd">
        <path fill="#000" d="m10.9 1.519 4.1 4.1v5.799l-4.1 4.1H5.1l-4.1-4.1V5.619l4.1-4.1z"/>
        <path d="M8 10.719a1.3 1.3 0 1 1 0 2.6 1.3 1.3 0 0 1 0-2.6zm1-7.2v6H7v-6h2z" fill="#FFF"/>
      </g>
    </g>
    <g id="Checkmark">
      <g fill="#FFFFFF" fill-rule="evenodd">
        <path d="M11.275 3.464l1.261.81-4.905 7.632c-.254.395-.798.456-1.134.151l-.073-.077-2.98-3.576 1.152-.96 2.326 2.79 4.353-6.77z" />
      </g>
    </g>
  </defs>
  <svg class="sprite-part" id="CheckBoxFalse" width="16px" height="16px" viewBox="0 0 16 16">
    <rect x="0.5" y="0.5" height="15" width="15" fill="#ffffff" rx="2" ry="2" stroke="#979797"/>
  </svg>
  <svg class="sprite-part" id="CheckBoxNull" width="16px" height="16px" viewBox="0 0 16 16">
    <rect x="0.5" y="0.5" height="15" width="15" fill="#ffffff" fill-opacity="0.5" rx="2" ry="2" stroke="#979797" />
    <rect x="3" y="7" width="10" height="2" fill="#979797" stroke-width="0" />
  </svg>
  <svg class="sprite-part" id="CheckBoxTrue" width="16px" height="16px" viewBox="0 0 16 16">
    <rect x="0.5" y="0.5" height="15" width="15" fill="#136DA3" rx="2" ry="2" stroke="#136DA3" />
    <use href="#Checkmark" />
  </svg>
  <svg class="sprite-part" id="CheckBoxTrueHover" width="16px" height="16px" viewBox="0 0 16 16">
    <rect x="0.5" y="0.5" height="15" width="15" fill="#218FC9" rx="2" ry="2" stroke="#218FC9" />
    <use href="#Checkmark" />
  </svg>
  <svg class="sprite-part" id="CheckBoxFalseHover" width="16px" height="16px" viewBox="0 0 16 16">
    <rect x="0.5" y="0.5" height="15" width="15" fill="#DEF3FE" rx="2" ry="2" stroke="#0C6594"/>
  </svg>
  <svg class="sprite-part" id="DatePicker" width="16" height="16" viewBox="0 0 16 16">
    <rect x="0" y="2" height="10" width="16" rx="2" ry="2" fill="#FFFFFF" />
    <g fill="#000000" fill-rule="evenodd">
      <path d="M14 2c1.105 0 2 .895 2 2v7c0 1.105-.895 2-2 2H2c-1.105 0-2-.895-2-2V4c0-1.105.895-2 2-2h12zm1 3H1v6c0 .513.386.936.883.993L2 12h12c.513 0 .936-.386.993-.883L15 11V5zm-5 5v1H9v-1h1zm-3 0v1H6v-1h1zm-3 0v1H3v-1h1zm9-2v1h-1V8h1zm-3 0v1H9V8h1zM7 8v1H6V8h1zM4 8v1H3V8h1zm9-2v1h-1V6h1zm-3 0v1H9V6h1zM7 6v1H6V6h1z" />
    </g>
  </svg>
  <svg class="sprite-part" id="DropDownMenuButton" width="16" height="16" viewBox="0 0 16 16">
    <g transform="translate(16, 0) rotate(90)">
      <use href="#SingleChevron" />
    </g>
  </svg>
  <svg class="sprite-part" id="DropDownMenuButtonWhite" width="16" height="16" viewBox="0 0 16 16">
    <g transform="translate(16, 0) rotate(90)">
      <use href="#SingleChevronWhite" />
    </g>
  </svg>
  <svg class="sprite-part" id="DropDownMenuErrorIndicator" width="16" height="16" viewBox="0 0 16 16">
    <use href="#Alert" />
  </svg>
  <svg class="sprite-part" id="DropDownMenuRequestInProgressIndicator" width="16" height="16" viewBox="0 0 16 16">
    <g stroke="none" stroke-width="1" fill="none" fill-rule="evenodd">
      <path d="M11.5,2.5 L11.5,4 C11.5,4.96649831 11.1082492,5.84149831 10.4748737,6.47487373 C9.84149831,7.10824916 8.96649831,7.5 8,7.5 C7.03350169,7.5 6.15850169,7.10824916 5.52512627,6.47487373 C4.89175084,5.84149831 4.5,4.96649831 4.5,4 L4.5,4 L4.5,2.5 L11.5,2.5 Z" stroke="#000000" fill="#FFFFFF"/>
      <path d="M11.5,8.5 L11.5,10 C11.5,10.9664983 11.1082492,11.8414983 10.4748737,12.4748737 C9.84149831,13.1082492 8.96649831,13.5 8,13.5 C7.03350169,13.5 6.15850169,13.1082492 5.52512627,12.4748737 C4.89175084,11.8414983 4.5,10.9664983 4.5,10 L4.5,10 L4.5,8.5 L11.5,8.5 Z" stroke="#000000" fill="#FFFFFF" transform="translate(8.000000, 11.000000) rotate(-180.000000) translate(-8.000000, -11.000000)"/>
      <rect stroke="#000000" x="3.5" y="0.5" width="9" height="1" rx="0.5"/>
      <rect stroke="#000000" x="3.5" y="14.5" width="9" height="1" rx="0.5"/>
    </g>
  </svg>
  <svg class="sprite-part" id="Help" width="16" height="16" viewBox="0 0 16 16">
    <g fill="#23adf8" fill-rule="evenodd">
      <path d="M8 0c4.418 0 8 3.582 8 8s-3.582 8-8 8-8-3.582-8-8 3.582-8 8-8zm-.103 10.944c-.315 0-.574.097-.776.292-.202.195-.303.442-.303.742 0 .296.099.54.296.733.198.193.459.289.783.289s.585-.096.782-.289c.198-.193.297-.437.297-.733 0-.3-.101-.547-.303-.742-.202-.195-.461-.292-.776-.292zM8.03 3c-.932 0-1.668.242-2.208.726-.49.44-.761 1.033-.813 1.78L5 5.736h1.931c.01-.36.112-.64.31-.844.197-.204.46-.306.789-.306.693 0 1.039.379 1.039 1.136 0 .25-.067.49-.2.715-.133.227-.4.52-.802.88-.402.362-.679.728-.83 1.1-.129.318-.203.731-.221 1.237l-.005.261h1.705l.027-.41c.042-.384.195-.725.46-1.024l.119-.125.54-.517c.421-.412.716-.788.885-1.126.169-.338.253-.698.253-1.079 0-.837-.26-1.486-.78-1.945C9.702 3.229 8.972 3 8.03 3z" />
    </g>
  </svg>
  <svg class="sprite-part" id="RequiredField" height="16px" width="16px" viewBox="0 0 16 16">
    <g stroke="none" stroke-width="1" fill="none" fill-rule="evenodd" stroke-linecap="round">
      <line x1="8" y1="4" x2="8" y2="12" stroke="#000000"/>
      <line x1="4" y1="8" x2="12" y2="8" stroke="#000000"/>
      <line x1="5.17157288" y1="10.8284271" x2="10.8284271" y2="5.17157288" stroke="#000000"/>
      <line x1="10.8284271" y1="10.8284271" y2="5.17157288" x2="5.17157288" stroke="#000000"/>
    </g>
  </svg>
  <svg class="sprite-part" id="TreeViewF" width="16px" height="16px" viewBox="0 0 16 16" />
  <svg class="sprite-part" id="TreeViewFMinus" width="16px" height="16px" viewBox="0 0 16 16">
    <use href="#TreeViewOpen" />
  </svg>
  <svg class="sprite-part" id="TreeViewFPlus" width="16px" height="16px" viewBox="0 0 16 16">
    <use href="#TreeViewClosed" />
  </svg>
  <svg class="sprite-part" id="TreeViewI" width="16px" height="16px" viewBox="0 0 16 16" />
  <svg class="sprite-part" id="TreeViewL" width="16px" height="16px" viewBox="0 0 16 16" />
  <svg class="sprite-part" id="TreeViewLMinus" width="16px" height="16px" viewBox="0 0 16 16">
    <use href="#TreeViewOpen" />
  </svg>
  <svg class="sprite-part" id="TreeViewLPlus" width="16px" height="16px" viewBox="0 0 16 16">
    <use href="#TreeViewClosed" />
  </svg>
  <svg class="sprite-part" id="TreeViewMinus" width="16px" height="16px" viewBox="0 0 16 16">
    <use href="#TreeViewOpen" />
  </svg>
  <svg class="sprite-part" id="TreeViewPlus" width="16px" height="16px" viewBox="0 0 16 16">
    <use href="#TreeViewClosed" />
  </svg>
  <svg class="sprite-part" id="TreeViewR" width="16px" height="16px" viewBox="0 0 16 16" />
  <svg class="sprite-part" id="TreeViewRMinus" width="16px" height="16px" viewBox="0 0 16 16">
    <use href="#TreeViewOpen" />
  </svg>
  <svg class="sprite-part" id="TreeViewRPlus" width="16px" height="16px" viewBox="0 0 16 16">
    <use href="#TreeViewClosed" />
  </svg>
  <svg class="sprite-part" id="TreeViewT" width="16px" height="16px" viewBox="0 0 16 16" />
  <svg class="sprite-part" id="TreeViewTMinus" width="16px" height="16px" viewBox="0 0 16 16">
    <use href="#TreeViewOpen" />
  </svg>
  <svg class="sprite-part" id="TreeViewTPlus" width="16px" height="16px" viewBox="0 0 16 16">
    <use href="#TreeViewClosed" />
  </svg>
  <svg class="sprite-part" id="TreeViewWhite" width="16px" height="16px" viewBox="0 0 16 16" />
  <svg class="sprite-part" id="ValidationError" width="16px" height="16px" viewBox="0 0 16 16">
    <g stroke="none" stroke-width="1" fill="none" fill-rule="evenodd" stroke-linecap="round">
      <circle fill="#AC1B1B" stroke="none" cx="8" cy="8" r="7.8" />
      <path fill="#FFFFFF" d="M8 10.2c.718 0 1.3.582 1.3 1.3 0 .718-.582 1.3-1.3 1.3-.718 0-1.3-.582-1.3-1.3 0-.718.582-1.3 1.3-1.3zM9 3v6H7V3h2z"/>
    </g>
  </svg>
  <svg class="sprite-part" id="RadioButtonFalse" width="16px" height="16px" viewBox="0 0 16 16">
    <g>
      <circle fill="#ffffff" stroke="#979797" stroke-width="1" cy="8" cx="8" r="7.5" />
    </g>
  </svg>
  <svg class="sprite-part" id="RadioButtonTrue" width="16px" height="16px" viewBox="0 0 16 16">
    <g>
      <circle fill="#ffffff" stroke="#0c6594" stroke-width="1" cx="8" cy="8" r="7.5" />
      <circle fill="#0c6594" cx="8" cy="8" r="5.4" />
    </g>
  </svg>
  <svg class="sprite-part" id="RadioButtonFalseHover" width="16px" height="16px" viewBox="0 0 16 16">
    <g>
      <circle fill="#DEF3FE" stroke="#0C6594" stroke-width="1" cy="8" cx="8" r="7.5" />
    </g>
  </svg>
  <svg class="sprite-part" id="RadioButtonTrueHover" width="16px" height="16px" viewBox="0 0 16 16">
    <g>
      <circle fill="#ffffff" stroke="#218FC9" stroke-width="1" cx="8" cy="8" r="7.5" />
      <circle fill="#218FC9" cx="8" cy="8" r="5.4" />
    </g>
  </svg>
</svg>
