<svg xmlns="http://www.w3.org/2000/svg" viewBox="0 0 16 16">
  <defs>
    <style>
      image, .sprite-part { display: none; }
      image:target, .sprite-part:target { display: inline; }
    </style>
    <g id="SingleChevron">
      <g stroke="#000000" stroke-width="1.2" fill="none" fill-rule="evenodd" stroke-linecap="square" stroke-linejoin="round">
        <polyline points="6.5 11 9.5 8 6.5 5" />
      </g>
    </g>
    <g id="DoubleChevron">
      <g stroke="#000000" stroke-width="1.2" fill="none" fill-rule="evenodd" stroke-linecap="square" stroke-linejoin="round">
        <polyline points="4.5 11 7.5 8 4.5 5" />
        <polyline points="8.5 11 11.5 8 8.5 5" />
      </g>
    </g>
    <g id="Alert">
      <g fill="none" fill-rule="evenodd">
        <path fill="#000" d="m10.9 1.519 4.1 4.1v5.799l-4.1 4.1H5.1l-4.1-4.1V5.619l4.1-4.1z"/>
        <path d="M8 10.719a1.3 1.3 0 1 1 0 2.6 1.3 1.3 0 0 1 0-2.6zm1-7.2v6H7v-6h2z" fill="#FFF"/>
      </g>
    </g>
    <g id="SortingArrowDown">
      <g stroke="none" stroke-width="1" fill="none" fill-rule="evenodd">
        <polyline stroke="#515151" stroke-width="1.2" stroke-linecap="square" stroke-linejoin="round" transform="translate(8.000000, 12.050293) scale(1, -1) rotate(-90.000000) translate(-8.000000, -12.050293) " points="6.5 15.050293 9.5 12.050293 6.5 9.05029297"/>
        <path d="M8,10.550293 C8,5.14990234 8,2.44970703 8,2.44970703" stroke="#515151" stroke-width="1.5" stroke-dasharray="1.5"/>
      </g>
    </g>
  </defs>
  <svg class="sprite-part" id="AutoCompleteReferenceValueDropDownButtonFace" width="16px" height="16px" viewBox="0 0 16 16">
    <g transform="translate(16, 0) rotate(90)">
      <use href="#SingleChevron" />
    </g>
  </svg>
  <svg class="sprite-part" id="AutoCompleteReferenceValueErrorIndicator" width="16" height="16" viewBox="0 0 16 16">
    <use href="#Alert" />
  </svg>
  <svg class="sprite-part" id="AutoCompleteReferenceValueRequestInProgressIndicator" width="16" height="16" viewBox="0 0 16 16">
    <g stroke="none" stroke-width="1" fill="none" fill-rule="evenodd">
      <path d="M11.5,2.5 L11.5,4 C11.5,4.96649831 11.1082492,5.84149831 10.4748737,6.47487373 C9.84149831,7.10824916 8.96649831,7.5 8,7.5 C7.03350169,7.5 6.15850169,7.10824916 5.52512627,6.47487373 C4.89175084,5.84149831 4.5,4.96649831 4.5,4 L4.5,4 L4.5,2.5 L11.5,2.5 Z" stroke="#000000" fill="#FFFFFF"/>
      <path d="M11.5,8.5 L11.5,10 C11.5,10.9664983 11.1082492,11.8414983 10.4748737,12.4748737 C9.84149831,13.1082492 8.96649831,13.5 8,13.5 C7.03350169,13.5 6.15850169,13.1082492 5.52512627,12.4748737 C4.89175084,11.8414983 4.5,10.9664983 4.5,10 L4.5,10 L4.5,8.5 L11.5,8.5 Z" stroke="#000000" fill="#FFFFFF" transform="translate(8.000000, 11.000000) rotate(-180.000000) translate(-8.000000, -11.000000)"/>
      <rect stroke="#000000" x="3.5" y="0.5" width="9" height="1" rx="0.5"/>
      <rect stroke="#000000" x="3.5" y="14.5" width="9" height="1" rx="0.5"/>
    </g>
  </svg>
  <svg class="sprite-part" id="MoveFirst" width="16px" height="16px" viewBox="0 0 16 16">
    <g transform="translate(16, 0) scale(-1, 1)">
      <use href="#DoubleChevron" />
    </g>
  </svg>
  <svg class="sprite-part" id="MoveFirstInactive" width="16px" height="16px" viewBox="0 0 16 16">
    <g transform="translate(16, 0) scale(-1, 1)">
      <use href="#DoubleChevron" />
    </g>
  </svg>
  <svg class="sprite-part" id="MoveLast" width="16px" height="16px" viewBox="0 0 16 16">
    <use href="#DoubleChevron" />
  </svg>
  <svg class="sprite-part" id="MoveLastInactive" width="16px" height="16px" viewBox="0 0 16 16">
    <use href="#DoubleChevron" />
  </svg>
  <svg class="sprite-part" id="MoveNext" width="16px" height="16px" viewBox="0 0 16 16">
    <use href="#SingleChevron" />
  </svg>
  <svg class="sprite-part" id="MoveNextInactive" width="16px" height="16px" viewBox="0 0 16 16">
    <use href="#SingleChevron" />
  </svg>
  <svg class="sprite-part" id="MovePrevious" width="16px" height="16px" viewBox="0 0 16 16">
    <g transform="translate(16, 0) scale(-1, 1)">
      <use href="#SingleChevron" />
    </g>
  </svg>
  <svg class="sprite-part" id="MovePreviousInactive" width="16px" height="16px" viewBox="0 0 16 16">
    <g transform="translate(16, 0) scale(-1, 1)">
      <use href="#SingleChevron" />
    </g>
  </svg>
  <svg class="sprite-part" id="ReferenceValueErrorIndicator" width="16px" height="16px" viewBox="0 0 16 16">
    <use href="#Alert" />
  </svg>
  <svg class="sprite-part" id="SortAscending" width="16px" height="16px" viewBox="0 0 16 16">
    <g transform="rotate(180) translate(-16, -16)">
      <use href="#SortingArrowDown" />
    </g>
  </svg>
  <svg class="sprite-part" id="SortDescending" width="16px" height="16px" viewBox="0 0 16 16">
    <use href="#SortingArrowDown" />
  </svg>
  <svg class="sprite-part" id="ValidationErrorColumnTitleIcon" width="16px" height="16px" viewBox="0 0 16 16">
    <g stroke="none" stroke-width="1" fill="none" fill-rule="evenodd" stroke-linecap="round">
      <circle fill="#979797" stroke="none" cx="8" cy="8" r="7.8" />
      <path fill="#FFFFFF" d="M8 10.2c.718 0 1.3.582 1.3 1.3 0 .718-.582 1.3-1.3 1.3-.718 0-1.3-.582-1.3-1.3 0-.718.582-1.3 1.3-1.3zM9 3v6H7V3h2z"/>
    </g>
  </svg>
</svg>
